# xmcd CD database file generated by Grip 2.95
# 
# Track frame offsets:
#       182
#       11420
#       29830
#       44022
#       61307
#       72590
#       88542
#       104675
#       119887
#       137222
# 
# Disc length: 2026 seconds
# 
# Revision: 3
# Processed by: cddbd v1.4PL0 Copyright (c) Steve Scherf et al.
# Submitted via: Grip 2.95
# 
DISCID=9d07e80a
DTITLE=Shenandoah - In The Vicinity Of The Heart
DYEAR=1900
DGENRE=
TTITLE0=Darned if I Don't
TTITLE1=Somewhere in the Vicinity of the Heart
TTITLE2=Heaven Bound
TTITLE3=Always Have, Always Will
TTITLE4=Cabin Fever
TTITLE5=I Wouldn't Know
TTITLE6=Call it Love
TTITLE7=You Can Say That
TTITLE8=Every Fire
TTITLE9=She Could Care Less
EXTD=
EXTT0=
EXTT1=
EXTT2=
EXTT3=
EXTT4=
EXTT5=
EXTT6=
EXTT7=
EXTT8=
EXTT9=
PLAYORDER=
